<svg width="20" height="20" viewBox="0 0 20 20" fill="none" xmlns="http://www.w3.org/2000/svg">
<path d="M15.5789 10.6175C15.5557 8.08845 17.6935 6.87432 17.7902 6.81512C16.5872 5.09594 14.715 4.86042 14.0471 4.83272C12.4548 4.67528 10.9385 5.74835 10.1313 5.74835C9.32417 5.74835 8.07606 4.85539 6.75574 4.88058C5.01766 4.90577 3.41754 5.86674 2.52272 7.38567C0.718883 10.4424 2.06241 14.9727 3.81854 17.4539C4.67855 18.6668 5.70231 20.0333 7.04842 19.9829C8.34553 19.9325 8.8355 19.1642 10.4008 19.1642C11.9661 19.1642 12.4071 19.9829 13.7777 19.959C15.1715 19.9325 16.056 18.7196 16.9096 17.503C17.8946 16.0949 18.3021 14.7322 18.3253 14.6604C18.2943 14.6478 15.6073 13.6415 15.5789 10.6175Z" fill="#121212"/>
<path d="M13.004 3.19148C13.7183 2.34637 14.2006 1.17126 14.0677 0C13.0387 0.0403467 11.7933 0.670053 11.0544 1.51516C10.393 2.26206 9.8128 3.45852 9.97003 4.60594C11.1176 4.69285 12.2896 4.03534 13.004 3.19148Z" fill="#121212"/>
</svg>
