<svg width="24" height="24" viewBox="0 0 24 24" fill="none" xmlns="http://www.w3.org/2000/svg">
<path fill-rule="evenodd" clip-rule="evenodd" d="M7.03708 1.79102C7.59407 1.79102 8.0456 2.24255 8.0456 2.79954V3.71752H15.9542V2.79954C15.9542 2.24255 16.4057 1.79102 16.9627 1.79102C17.5197 1.79102 17.9712 2.24255 17.9712 2.79954V3.88836C20.2884 4.48732 22 6.59195 22 9.09633V16.8302C22 19.8008 19.5918 22.209 16.6212 22.209H7.37881C4.40817 22.209 2 19.8008 2 16.8302V9.09633C2 6.59202 3.71145 4.48745 6.02855 3.88841V2.79954C6.02855 2.24255 6.48008 1.79102 7.03708 1.79102ZM6.25218 9.04955C6.25218 8.49256 6.70372 8.04102 7.26071 8.04102H16.7388C17.2958 8.04102 17.7474 8.49256 17.7474 9.04955C17.7474 9.60654 17.2958 10.0581 16.7388 10.0581H7.26071C6.70372 10.0581 6.25218 9.60654 6.25218 9.04955ZM8.35105 12.8294C8.35105 13.3886 7.89772 13.842 7.33851 13.842C6.7793 13.842 6.32598 13.3886 6.32598 12.8294C6.32598 12.2702 6.7793 11.8169 7.33851 11.8169C7.89772 11.8169 8.35105 12.2702 8.35105 12.8294ZM13.0121 12.8295C13.0121 13.3887 12.5587 13.842 11.9995 13.842C11.4403 13.842 10.987 13.3887 10.987 12.8295C10.987 12.2703 11.4403 11.8169 11.9995 11.8169C12.5587 11.8169 13.0121 12.2703 13.0121 12.8295ZM16.661 13.842C17.2202 13.842 17.6735 13.3887 17.6735 12.8295C17.6735 12.2703 17.2202 11.8169 16.661 11.8169C16.1018 11.8169 15.6485 12.2703 15.6485 12.8295C15.6485 13.3887 16.1018 13.842 16.661 13.842ZM7.33875 17.8643C7.89796 17.8643 8.35129 17.4109 8.35129 16.8517C8.35129 16.2925 7.89796 15.8392 7.33875 15.8392C6.77954 15.8392 6.32622 16.2925 6.32622 16.8517C6.32622 17.4109 6.77954 17.8643 7.33875 17.8643ZM11.9998 17.867C12.559 17.867 13.0123 17.4136 13.0123 16.8544C13.0123 16.2952 12.559 15.8419 11.9998 15.8419C11.4406 15.8419 10.9872 16.2952 10.9872 16.8544C10.9872 17.4136 11.4406 17.867 11.9998 17.867ZM17.6738 16.8544C17.6738 17.4136 17.2204 17.867 16.6612 17.867C16.102 17.867 15.6487 17.4136 15.6487 16.8544C15.6487 16.2952 16.102 15.8419 16.6612 15.8419C17.2204 15.8419 17.6738 16.2952 17.6738 16.8544Z" fill="#121212"/>
</svg>
