<svg width="24" height="24" viewBox="0 0 24 24" fill="none" xmlns="http://www.w3.org/2000/svg">
<path fill-rule="evenodd" clip-rule="evenodd" d="M6.88043 5.68583H8.02507H15.9746H17.1194L17.4946 5.775C18.9458 6.1199 20.0235 7.42715 20.0235 8.98128V16.9287C20.0235 18.7487 18.548 20.2241 16.728 20.2241H7.27197C5.45195 20.2241 3.97653 18.7487 3.97653 16.9287V8.98128C3.97653 7.42723 5.05413 6.12004 6.50515 5.77506L6.88043 5.68583ZM6.0478 3.70857V3.85141C3.7261 4.4034 1.99927 6.49067 1.99927 8.98128V16.9287C1.99927 19.8407 4.35994 22.2014 7.27197 22.2014H16.728C19.6401 22.2014 22.0007 19.8407 22.0007 16.9287V8.98128C22.0007 6.49054 20.2737 4.40318 17.9518 3.85132L17.9518 3.70857L17.9518 2.78918L17.9518 2.78779C17.9518 2.24179 17.5092 1.79916 16.9632 1.79916C16.4172 1.79916 15.9746 2.24179 15.9746 2.78779V2.78918V3.70857H13.9973H10.0023H8.02507V2.78734C8.02507 2.24133 7.58244 1.79871 7.03644 1.79871C6.49043 1.79871 6.0478 2.24133 6.0478 2.78734V3.70857ZM7.26046 8.05247C6.71445 8.05247 6.27183 8.49509 6.27183 9.0411C6.27183 9.5871 6.71445 10.0297 7.26046 10.0297H16.7393C17.2853 10.0297 17.7279 9.5871 17.7279 9.0411C17.7279 8.49509 17.2853 8.05247 16.7393 8.05247H7.26046ZM7.33841 13.8354C7.89766 13.8354 8.35102 13.382 8.35102 12.8228C8.35102 12.2635 7.89766 11.8101 7.33841 11.8101C6.77916 11.8101 6.3258 12.2635 6.3258 12.8228C6.3258 13.382 6.77916 13.8354 7.33841 13.8354ZM11.9998 13.8358C12.559 13.8358 13.0124 13.3824 13.0124 12.8232C13.0124 12.2639 12.559 11.8106 11.9998 11.8106C11.4405 11.8106 10.9872 12.2639 10.9872 12.8232C10.9872 13.3824 11.4405 13.8358 11.9998 13.8358ZM17.674 12.8232C17.674 13.3824 17.2207 13.8358 16.6614 13.8358C16.1022 13.8358 15.6488 13.3824 15.6488 12.8232C15.6488 12.2639 16.1022 11.8106 16.6614 11.8106C17.2207 11.8106 17.674 12.2639 17.674 12.8232ZM8.35093 16.8455C8.35093 17.4048 7.89757 17.8582 7.33832 17.8582C6.77907 17.8582 6.32571 17.4048 6.32571 16.8455C6.32571 16.2863 6.77907 15.8329 7.33832 15.8329C7.89757 15.8329 8.35093 16.2863 8.35093 16.8455ZM13.0126 16.8455C13.0126 17.4048 12.5592 17.8582 12 17.8582C11.4407 17.8582 10.9873 17.4048 10.9873 16.8455C10.9873 16.2863 11.4407 15.8329 12 15.8329C12.5592 15.8329 13.0126 16.2863 13.0126 16.8455ZM16.6616 17.8582C17.2208 17.8582 17.6742 17.4048 17.6742 16.8455C17.6742 16.2863 17.2208 15.8329 16.6616 15.8329C16.1023 15.8329 15.649 16.2863 15.649 16.8455C15.649 17.4048 16.1023 17.8582 16.6616 17.8582Z" fill="#A6A6A6"/>
</svg>
