<svg width="24" height="24" viewBox="0 0 24 24" fill="none" xmlns="http://www.w3.org/2000/svg">
<path fill-rule="evenodd" clip-rule="evenodd" d="M12 22C17.5228 22 22 17.5228 22 12C22 6.47715 17.5228 2 12 2C6.47715 2 2 6.47715 2 12C2 17.5228 6.47715 22 12 22ZM13.0003 7.79734C13.0003 7.24487 12.5525 6.797 12 6.797C11.4475 6.797 10.9997 7.24487 10.9997 7.79734V11.8045C10.9997 12.5176 11.3256 13.1915 11.8845 13.6342L15.0497 16.1414C15.4828 16.4844 16.112 16.4114 16.455 15.9783C16.798 15.5453 16.7251 14.9161 16.292 14.5731L13.1267 12.0659C13.0469 12.0027 13.0003 11.9064 13.0003 11.8045V7.79734Z" fill="#121212"/>
</svg>
