<svg width="24" height="24" viewBox="0 0 24 24" fill="none" xmlns="http://www.w3.org/2000/svg">
<path d="M10.003 11.5234C12.4476 11.5234 14.4293 9.54169 14.4293 7.0971C14.4293 4.65251 12.4476 2.67078 10.003 2.67078C7.55838 2.67078 5.57665 4.65251 5.57665 7.0971C5.57665 9.54169 7.55838 11.5234 10.003 11.5234Z" fill="#121212"/>
<path d="M10.0027 21.3291C5.58295 21.3291 2 20.2313 2 17.9588C2 15.6863 5.58295 13.0996 10.0027 13.0996C14.4225 13.0996 18.0059 15.6863 18.0059 17.9588C18.0059 20.2313 14.4225 21.3291 10.0027 21.3291Z" fill="#121212"/>
<path d="M16.0016 10.6574C15.8775 10.6574 15.755 10.6506 15.6344 10.6373C15.2487 10.5949 15.1256 10.138 15.3309 9.80868C15.8212 9.02178 16.1044 8.09252 16.1044 7.0971C16.1044 6.27882 15.913 5.50526 15.5725 4.81873C15.4 4.47083 15.5668 4.02783 15.9551 4.02249C15.9706 4.02227 15.9861 4.02217 16.0016 4.02217C17.8339 4.02217 19.3193 5.50752 19.3193 7.3398C19.3193 9.17207 17.8339 10.6574 16.0016 10.6574Z" fill="#121212"/>
<path d="M22 15.4809C22 16.2596 21.4387 16.8542 20.5128 17.2704C20.1801 17.4199 19.8181 17.1631 19.7081 16.8153C19.2209 15.2752 17.4094 13.7326 14.9394 12.8906C14.4051 12.7085 14.3739 11.9774 14.9339 11.9063C15.2803 11.8623 15.6371 11.8388 16.0014 11.8388C19.3142 11.8388 22 13.7776 22 15.4809Z" fill="#121212"/>
</svg>
