<svg width="24" height="24" viewBox="0 0 24 24" fill="none" xmlns="http://www.w3.org/2000/svg">
<path fill-rule="evenodd" clip-rule="evenodd" d="M5.4655 3.10828C3.55156 3.10828 2 4.65984 2 6.57378V17.4263C2 19.3402 3.55156 20.8918 5.4655 20.8918H18.5345C20.4484 20.8918 22 19.3402 22 17.4263V6.57377C22 4.65983 20.4484 3.10828 18.5345 3.10828H5.4655ZM4.95401 8.33616C5.15034 7.83617 5.67235 7.60862 6.11996 7.82792L11.5643 10.4952C11.8391 10.6298 12.1607 10.6298 12.4355 10.4952L17.8798 7.82792C18.3274 7.60862 18.8495 7.83617 19.0458 8.33616C19.2421 8.83615 19.0384 9.41924 18.5908 9.63854L12.358 12.6921L12.3443 12.6987C12.2319 12.7518 12.115 12.777 11.9999 12.7769C11.8848 12.777 11.7679 12.7518 11.6555 12.6987L11.6417 12.6921L5.40902 9.63854C4.9614 9.41924 4.75769 8.83615 4.95401 8.33616Z" fill="#121212"/>
</svg>
