<svg width="24" height="24" viewBox="0 0 24 24" fill="none" xmlns="http://www.w3.org/2000/svg">
<path fill-rule="evenodd" clip-rule="evenodd" d="M2 8.47696C2 7.44423 2 6.92787 2.08233 6.49794C2.43778 4.64175 3.88943 3.1901 5.74563 2.83465C6.17555 2.75232 6.69191 2.75232 7.72463 2.75232C8.75735 2.75232 9.27371 2.75232 9.70364 2.83465C10.888 3.06145 11.9077 3.73456 12.583 4.67429C12.8631 5.06402 13.0031 5.25889 13.1468 5.33257C13.2905 5.40626 13.4812 5.40626 13.8627 5.40626H14.0793C17.1738 5.40626 18.721 5.40626 19.8493 6.11849C20.4298 6.48497 20.9213 6.97642 21.2878 7.55699C22 8.68527 22 10.2325 22 13.327C22 16.4215 22 17.9687 21.2878 19.097C20.9213 19.6776 20.4298 20.169 19.8493 20.5355C18.721 21.2477 17.1738 21.2477 14.0793 21.2477H9.92073C6.82625 21.2477 5.27901 21.2477 4.15073 20.5355C3.57016 20.169 3.07872 19.6776 2.71223 19.097C2 17.9687 2 16.4215 2 13.327L2.00002 13.0536L2 12.8692V8.47696ZM6.25218 10.7506C6.25218 10.3906 6.544 10.0988 6.90397 10.0988H17.0962C17.4562 10.0988 17.748 10.3906 17.748 10.7506C17.748 11.3046 18.1971 11.7538 18.7511 11.7538C19.3052 11.7538 19.7543 11.3046 19.7543 10.7506C19.7543 9.28259 18.5642 8.09251 17.0962 8.09251H6.90397C5.43594 8.09251 4.24587 9.28259 4.24587 10.7506C4.24587 11.3046 4.69499 11.7538 5.24902 11.7538C5.80305 11.7538 6.25218 11.3046 6.25218 10.7506Z" fill="#121212"/>
</svg>
