<svg width="24" height="24" viewBox="0 0 24 24" fill="none" xmlns="http://www.w3.org/2000/svg">
<path fill-rule="evenodd" clip-rule="evenodd" d="M6.47777 4.54311C6.76403 4.48829 7.12817 4.48425 8.10946 4.48425C9.09075 4.48425 9.45489 4.48829 9.74115 4.54311C10.5908 4.70581 11.322 5.1896 11.8052 5.86579L11.8196 5.88606C11.9318 6.04311 12.0408 6.19561 12.1389 6.31507C12.2355 6.43268 12.3947 6.61258 12.6291 6.7332C12.8437 6.84357 13.0524 6.87524 13.2091 6.88803C13.3483 6.89939 13.5096 6.89935 13.6593 6.89931H13.6593L13.6838 6.89931H13.8921C15.318 6.89931 16.3226 6.9003 17.1013 6.97609C17.866 7.05053 18.3169 7.19034 18.6626 7.40855C19.0777 7.67058 19.4291 8.02197 19.6911 8.43707C19.9093 8.78274 20.0491 9.23368 20.1236 9.99839C20.1994 10.777 20.2003 11.7817 20.2003 13.2075C20.2003 14.6334 20.1994 15.638 20.1236 16.4167C20.0491 17.1814 19.9093 17.6323 19.6911 17.978C19.4291 18.3931 19.0777 18.7445 18.6626 19.0065C18.3169 19.2247 17.866 19.3645 17.1013 19.439C16.3226 19.5148 15.318 19.5157 13.8921 19.5157H10.1079C8.68206 19.5157 7.67739 19.5148 6.89876 19.439C6.13405 19.3645 5.68311 19.2247 5.33743 19.0065C4.92233 18.7445 4.57095 18.3931 4.30892 17.978C4.09071 17.6323 3.95089 17.1814 3.87646 16.4167C3.80067 15.638 3.79968 14.6334 3.79968 13.2075L3.79969 12.9589L3.79969 12.9584L3.79968 12.7909V8.79404C3.79968 7.81274 3.80372 7.4486 3.85854 7.16234C4.11269 5.83518 5.15061 4.79726 6.47777 4.54311ZM8.10946 2.68508L8.00373 2.68507C7.16552 2.68492 6.61584 2.68482 6.13939 2.77606C4.08832 3.16883 2.48426 4.77289 2.09148 6.82396C2.00025 7.30041 2.00035 7.85009 2.0005 8.68831L2.00051 8.79404V12.7909L2.00053 12.9585V12.959L2.00051 13.2075L2.00051 13.2546C2.0005 14.6227 2.00049 15.715 2.08576 16.591C2.17336 17.4909 2.35761 18.2573 2.78752 18.9384C3.19248 19.5799 3.73553 20.1229 4.37705 20.5279C5.05809 20.9578 5.8245 21.1421 6.72446 21.2297C7.60047 21.3149 8.69279 21.3149 10.0609 21.3149H10.0609H10.1079H13.8921H13.9391H13.9391C15.3072 21.3149 16.3996 21.3149 17.2756 21.2297C18.1755 21.1421 18.9419 20.9578 19.623 20.5279C20.2645 20.1229 20.8075 19.5799 21.2125 18.9384C21.6424 18.2573 21.8267 17.4909 21.9143 16.591C21.9995 15.715 21.9995 14.6226 21.9995 13.2545V13.2545V13.2075V13.1606V13.1605C21.9995 11.7924 21.9995 10.7001 21.9143 9.82409C21.8267 8.92414 21.6424 8.15773 21.2125 7.47668C20.8075 6.83516 20.2645 6.29212 19.623 5.88715C18.9419 5.45724 18.1755 5.27299 17.2756 5.18539C16.3996 5.10013 15.3073 5.10014 13.9392 5.10015L13.8921 5.10015H13.6838C13.5963 5.10015 13.5292 5.10012 13.4715 5.09923C13.4232 5.03511 13.3601 4.94729 13.269 4.81979C12.5233 3.77613 11.3931 3.02761 10.0795 2.77606C9.60309 2.68482 9.0534 2.68492 8.21519 2.68507L8.10946 2.68508ZM6.75622 10.8628C6.75622 10.5278 7.02772 10.2563 7.36263 10.2563H16.6375C16.9724 10.2563 17.2439 10.5278 17.2439 10.8628C17.2439 11.3596 17.6466 11.7623 18.1435 11.7623C18.6403 11.7623 19.043 11.3596 19.043 10.8628C19.043 9.53419 17.966 8.45718 16.6375 8.45718H7.36263C6.03407 8.45718 4.95706 9.53419 4.95706 10.8628C4.95706 11.3596 5.35981 11.7623 5.85664 11.7623C6.35346 11.7623 6.75622 11.3596 6.75622 10.8628Z" fill="#A6A6A6"/>
</svg>
