<svg width="20" height="20" viewBox="0 0 20 20" fill="none" xmlns="http://www.w3.org/2000/svg">
<path d="M19.9999 10.2222C19.9999 9.39994 19.9318 8.79995 19.7845 8.17773H10.204V11.8888H15.8276C15.7142 12.811 15.102 14.1999 13.7414 15.1332L13.7223 15.2574L16.7515 17.5572L16.9614 17.5777C18.8888 15.8332 19.9999 13.2666 19.9999 10.2222Z" fill="#4285F4"/>
<path d="M10.2039 20C12.9589 20 15.2718 19.1111 16.9612 17.5778L13.7413 15.1333C12.8796 15.7222 11.7231 16.1333 10.2039 16.1333C7.50551 16.1333 5.21528 14.3889 4.39888 11.9778L4.27922 11.9878L1.12945 14.3767L1.08826 14.4889C2.76624 17.7555 6.21294 20 10.2039 20Z" fill="#34A853"/>
<path d="M4.39903 11.9777C4.18362 11.3555 4.05895 10.6888 4.05895 9.99995C4.05895 9.31103 4.18362 8.64439 4.3877 8.02218L4.38199 7.88966L1.19275 5.4624L1.0884 5.51104C0.396828 6.86661 0 8.38885 0 9.99995C0 11.6111 0.396828 13.1332 1.0884 14.4888L4.39903 11.9777Z" fill="#FBBC05"/>
<path d="M10.2039 3.86662C12.12 3.86662 13.4124 4.67773 14.1494 5.35555L17.0292 2.59999C15.2606 0.988888 12.9589 0 10.2039 0C6.21294 0 2.76624 2.24442 1.08826 5.51104L4.38755 8.02218C5.21528 5.61108 7.50551 3.86662 10.2039 3.86662Z" fill="#EB4335"/>
</svg>
