<svg width="24" height="24" viewBox="0 0 24 24" fill="none" xmlns="http://www.w3.org/2000/svg">
<path d="M7.84265 7.92989C7.44249 8.04299 7.07606 8.25224 6.77529 8.5394C6.47452 8.82656 6.24853 9.18292 6.11703 9.57742L2.40002 20.728L2.98533 21.3133L8.96624 15.3324C8.84711 15.083 8.77499 14.8073 8.77499 14.5124C8.77499 13.4562 9.63123 12.6 10.6875 12.6C11.7437 12.6 12.6 13.4562 12.6 14.5124C12.6 15.5687 11.7437 16.4249 10.6875 16.4249C10.3926 16.4249 10.1169 16.3528 9.8675 16.2337L3.88659 22.2146L4.47189 22.7999L15.6225 19.0829C16.017 18.9514 16.3734 18.7254 16.6605 18.4246C16.9477 18.1239 17.1569 17.7574 17.27 17.3573L18.9749 11.325L13.875 6.22498L7.84265 7.92989ZM22.2397 5.3552L19.8447 2.9602C19.0977 2.21314 17.886 2.21314 17.139 2.9602L14.8858 5.21336L19.9866 10.3141L22.2397 8.06097C22.9868 7.31391 22.9868 6.10266 22.2397 5.3552Z" fill="#121212"/>
</svg>
