<svg width="24" height="24" viewBox="0 0 24 24" fill="none" xmlns="http://www.w3.org/2000/svg">
<path d="M7.20033 7.64658C7.1979 7.70375 7.2072 7.7608 7.22764 7.81424C7.24809 7.86768 7.27925 7.91638 7.3192 7.95733C7.35916 7.99828 7.40708 8.03063 7.46 8.05238C7.51292 8.07413 7.56973 8.08483 7.62694 8.08381H9.08733C9.33161 8.08381 9.52633 7.88378 9.55819 7.64127C9.71751 6.48004 10.5141 5.6339 11.9338 5.6339C13.1481 5.6339 14.2598 6.24107 14.2598 7.70145C14.2598 8.82551 13.5977 9.3424 12.5515 10.1284C11.3602 10.994 10.4167 12.0047 10.484 13.6457L10.4893 14.0298C10.4912 14.1459 10.5386 14.2567 10.6214 14.3382C10.7042 14.4196 10.8157 14.4653 10.9318 14.4653H12.3674C12.4848 14.4653 12.5974 14.4186 12.6804 14.3356C12.7634 14.2527 12.81 14.1401 12.81 14.0227V13.8369C12.81 12.5659 13.2932 12.1959 14.5979 11.2064C15.6759 10.3868 16.7999 9.47693 16.7999 7.56692C16.7999 4.8922 14.5412 3.59998 12.0683 3.59998C9.82549 3.59998 7.36849 4.64437 7.20033 7.64658ZM9.95648 17.8481C9.95648 18.7916 10.7088 19.489 11.7443 19.489C12.8224 19.489 13.5641 18.7916 13.5641 17.8481C13.5641 16.8709 12.8206 16.1841 11.7426 16.1841C10.7088 16.1841 9.95648 16.8709 9.95648 17.8481Z" fill="#121212"/>
</svg>
