<svg width="24" height="24" viewBox="0 0 24 24" fill="transparent" fill-opacity="0" xmlns="http://www.w3.org/2000/svg">
<path d="M2.99976 19.2662V11.7654C2.99976 10.687 3.4674 9.6616 4.28167 8.95454L10.3728 3.66541C11.3062 2.85489 12.6938 2.85489 13.6272 3.6654L19.7183 8.95454C20.5326 9.6616 21.0002 10.687 21.0002 11.7654V19.2662C21.0002 20.6368 19.8891 21.748 18.5184 21.748H16.359C15.6737 21.748 15.1181 21.1924 15.1181 20.5071V17.1326C15.1181 16.4473 14.5626 15.8917 13.8772 15.8917H10.3254C9.64003 15.8917 9.08446 16.4473 9.08446 17.1326V20.5071C9.08446 21.1924 8.52888 21.748 7.84355 21.748H5.48158C4.11091 21.748 2.99976 20.6368 2.99976 19.2662Z" stroke="#121212" stroke-width="1.86137" stroke-linejoin="round"/>
</svg>
