<svg width="24" height="24" viewBox="0 0 24 24" fill="none" xmlns="http://www.w3.org/2000/svg">
<path fill-rule="evenodd" clip-rule="evenodd" d="M10.2236 1.75171C7.84449 1.75171 5.91587 3.68033 5.91587 6.05941V7.89706H5.4593C3.54824 7.89706 1.99902 9.44628 1.99902 11.3573V19.0352C1.99902 20.9463 3.54825 22.4955 5.45931 22.4955H18.5406C20.4517 22.4955 22.0009 20.9463 22.0009 19.0352V11.3573C22.0009 9.44628 20.4516 7.89706 18.5406 7.89706H18.0841V6.05941C18.0841 3.68033 16.1554 1.75171 13.7764 1.75171H10.2236ZM16.6011 7.89706V6.05941C16.6011 4.49936 15.3364 3.23469 13.7764 3.23469H10.2236C8.66352 3.23469 7.39885 4.49936 7.39885 6.05941V7.89706H16.6011ZM12 13.5651C12.4095 13.5651 12.7415 13.897 12.7415 14.3066V16.0869C12.7415 16.4964 12.4095 16.8284 12 16.8284C11.5905 16.8284 11.2585 16.4964 11.2585 16.0869V14.3066C11.2585 13.897 11.5905 13.5651 12 13.5651Z" fill="#121212"/>
</svg>
