<svg width="24" height="24" viewBox="0 0 24 24" fill="none" xmlns="http://www.w3.org/2000/svg">
<path fill-rule="evenodd" clip-rule="evenodd" d="M5.87013 4.70187C4.506 5.2794 3.61974 6.617 3.61972 8.09834L3.61969 10.008H3.61963L3.61966 11.9999L3.61963 13.9919H3.61969L3.61972 15.9016C3.61974 17.3829 4.506 18.7205 5.87013 19.298L11.7955 21.8066C13.1282 22.3709 14.5792 21.6671 15.0535 20.4209C15.692 20.4148 16.248 20.3952 16.7195 20.3318C17.4399 20.235 18.0904 20.0219 18.6131 19.4992C19.1359 18.9765 19.3489 18.326 19.4458 17.6055C19.5376 16.9229 19.5375 16.0631 19.5375 15.032C19.5375 14.6969 19.1684 14.4932 18.8849 14.6717L18.2174 15.0921L18.2174 15.0921C18.1057 15.1625 18.0498 15.1977 18.005 15.2405C17.9149 15.3266 17.854 15.4361 17.8283 15.558C17.8155 15.6186 17.815 15.6856 17.8141 15.8197V15.8197C17.8093 16.4798 17.7934 16.9769 17.7397 17.3761C17.6685 17.9057 17.5454 18.1324 17.3959 18.2819C17.2463 18.4315 17.0197 18.5545 16.4901 18.6257C16.1493 18.6716 15.7371 18.6899 15.2131 18.6972L15.213 11.9999L15.2131 5.4797C15.7371 5.48703 16.1493 5.50538 16.4901 5.5512C17.0197 5.6224 17.2463 5.74545 17.3959 5.89501C17.5454 6.04456 17.6685 6.27122 17.7397 6.80081C17.7885 7.1635 17.8061 7.60702 17.8125 8.18019C17.814 8.3152 17.8147 8.38271 17.8277 8.44313C17.8538 8.56461 17.9143 8.6728 18.0041 8.75862C18.0488 8.8013 18.1047 8.83653 18.2166 8.90697L18.2166 8.90698L19.035 9.42239C19.2533 9.55989 19.5375 9.40299 19.5375 9.14499C19.5375 8.11386 19.5376 7.25402 19.4458 6.57143C19.3489 5.85095 19.1359 5.20047 18.6131 4.67775C18.0904 4.15503 17.4399 3.94195 16.7195 3.84508C16.2628 3.78369 15.7268 3.76338 15.1133 3.75667C14.7146 2.40107 13.1903 1.60275 11.7955 2.19327L5.87013 4.70187ZM20.0292 11.3351C20.4972 11.6542 20.4972 12.3444 20.0292 12.6635L17.4183 14.4435C16.8847 14.8073 16.1616 14.4251 16.1616 13.7793V10.2193C16.1616 9.57345 16.8847 9.1913 17.4183 9.55509L20.0292 11.3351Z" fill="#121212"/>
</svg>
