<svg width="24" height="24" viewBox="0 0 24 24" fill="none" xmlns="http://www.w3.org/2000/svg">
<path d="M5.20479 8.73951C5.20479 4.21821 8.1213 1.38965 11.719 1.38965H12.281C15.8787 1.38965 18.7952 4.21821 18.7952 8.73951C18.7952 9.92072 19.6363 10.8708 20.4667 11.8087C20.8024 12.1879 21.1364 12.5652 21.4123 12.9549C21.8627 13.591 22.0067 14.3406 21.9998 14.8446C21.9998 16.5576 20.7506 17.6725 19.5317 17.9463C19.5317 17.9463 16.8427 18.9492 12 18.9492C7.15732 18.9492 4.46826 17.9463 4.46826 17.9463C3.27519 17.552 2.00024 16.5576 2.00024 14.8446C1.9933 14.3406 2.1373 13.591 2.58765 12.9549C2.8636 12.5652 3.19758 12.1879 3.5333 11.8087C4.36371 10.8707 5.20479 9.92072 5.20479 8.73951Z" fill="#121212"/>
<path d="M9.20299 20.5691C9.20299 20.3186 9.40607 20.1155 9.65658 20.1155H14.8478C15.0983 20.1155 15.3014 20.3186 15.3014 20.5691C15.3014 21.6964 14.3876 22.6102 13.2603 22.6102H11.2441C10.1168 22.6102 9.20299 21.6964 9.20299 20.5691Z" fill="#121212"/>
</svg>
