<svg width="24" height="24" viewBox="0 0 24 24" fill="none" xmlns="http://www.w3.org/2000/svg">
<path fill-rule="evenodd" clip-rule="evenodd" d="M2 6.42105C2 3.97937 3.97937 2 6.42105 2H17.5789C20.0206 2 22 3.97937 22 6.42105V17.5789C22 20.0206 20.0206 22 17.5789 22H6.42105C3.97937 22 2 20.0206 2 17.5789V6.42105ZM9.52302 7.63257C9.52302 8.86173 8.52658 9.85817 7.29742 9.85817C6.06825 9.85817 5.07182 8.86173 5.07182 7.63257C5.07182 6.4034 6.06825 5.40696 7.29742 5.40696C8.52658 5.40696 9.52302 6.4034 9.52302 7.63257ZM18.1822 12.0913C16.9903 10.767 14.9078 10.7851 13.7392 12.1301L11.4003 14.8219L9.88507 13.7503C8.94402 13.0848 7.65614 13.216 6.86873 14.0578L6.67076 14.2694L4.55807 16.4004C4.27515 16.6858 4.12529 17.0893 4.22675 17.4781C4.80415 19.691 6.8658 20.0903 8.46819 20.0903H15.5734C18.0359 20.0903 20.2482 19.6023 20.1239 14.7964C20.1158 14.4836 20.0898 14.2109 19.8823 13.9803L18.1822 12.0913Z" fill="#121212"/>
</svg>
