<svg width="24" height="24" viewBox="0 0 24 24" fill="none" xmlns="http://www.w3.org/2000/svg">
<mask id="path-1-inside-1_63_1234" fill="white">
<path fill-rule="evenodd" clip-rule="evenodd" d="M12.0009 11.4939C14.5969 11.4939 16.7014 9.38936 16.7014 6.79332C16.7014 4.19728 14.5969 2.09277 12.0009 2.09277C9.40486 2.09277 7.30035 4.19728 7.30035 6.79332C7.30035 9.38936 9.40486 11.4939 12.0009 11.4939ZM11.9998 21.9072C7.30615 21.9072 3.50122 20.7413 3.50122 18.328C3.50122 15.9147 7.30615 13.1678 11.9998 13.1678C16.6934 13.1678 20.4988 15.9147 20.4988 18.328C20.4988 20.7413 16.6934 21.9072 11.9998 21.9072Z"/>
</mask>
<path d="M11.9998 13.1678V15.368V15.368V13.1678ZM14.5013 6.79332C14.5013 8.17425 13.3818 9.29371 12.0009 9.29371V13.694C15.8121 13.694 18.9016 10.6045 18.9016 6.79332H14.5013ZM12.0009 4.29293C13.3818 4.29293 14.5013 5.4124 14.5013 6.79332H18.9016C18.9016 2.98216 15.8121 -0.107388 12.0009 -0.107388V4.29293ZM9.50051 6.79332C9.50051 5.4124 10.62 4.29293 12.0009 4.29293V-0.107388C8.18974 -0.107388 5.10019 2.98217 5.10019 6.79332H9.50051ZM12.0009 9.29371C10.62 9.29371 9.50051 8.17425 9.50051 6.79332H5.10019C5.10019 10.6045 8.18974 13.694 12.0009 13.694V9.29371ZM1.30106 18.328C1.30106 20.9525 3.41426 22.3872 5.19869 23.0754C7.08957 23.8046 9.51604 24.1074 11.9998 24.1074V19.707C9.78988 19.707 7.96707 19.4268 6.78208 18.9698C6.19212 18.7423 5.88834 18.5195 5.75744 18.3829C5.69981 18.3228 5.69064 18.2952 5.69458 18.3043C5.70043 18.3179 5.70138 18.332 5.70138 18.328H1.30106ZM11.9998 10.9676C9.24042 10.9676 6.70134 11.7707 4.80088 12.992C3.02224 14.1351 1.30106 16.0048 1.30106 18.328H5.70138C5.70138 18.2379 5.88267 17.5275 7.1799 16.6938C8.3553 15.9384 10.0655 15.368 11.9998 15.368V10.9676ZM22.6989 18.328C22.6989 16.0047 20.9775 14.135 19.1988 12.992C17.2983 11.7707 14.7591 10.9676 11.9998 10.9676V15.368C13.934 15.368 15.6444 15.9384 16.8199 16.6938C18.1174 17.5276 18.2986 18.238 18.2986 18.328H22.6989ZM11.9998 24.1074C14.4835 24.1074 16.9101 23.8046 18.801 23.0754C20.5854 22.3873 22.6989 20.9526 22.6989 18.328H18.2986C18.2986 18.332 18.2996 18.3179 18.3054 18.3043C18.3094 18.2951 18.3002 18.3227 18.2426 18.3829C18.1116 18.5194 17.8078 18.7422 17.2177 18.9698C16.0326 19.4268 14.2097 19.707 11.9998 19.707V24.1074Z" fill="#A6A6A6" mask="url(#path-1-inside-1_63_1234)"/>
</svg>
