<svg width="24" height="24" viewBox="0 0 24 24" fill="none" xmlns="http://www.w3.org/2000/svg">
<path fill-rule="evenodd" clip-rule="evenodd" d="M10.6647 2.04517C5.89421 2.04517 2.04517 5.95109 2.04517 10.7467C2.04517 15.5423 5.89421 19.4482 10.6647 19.4482C15.4352 19.4482 19.2843 15.5423 19.2843 10.7467C19.2843 8.44234 18.3787 6.23023 16.7634 4.59758C15.1478 2.96456 12.9542 2.04517 10.6647 2.04517ZM4.04517 10.7467C4.04517 7.03543 7.0189 4.04517 10.6647 4.04517C12.4169 4.04517 14.0994 4.74859 15.3417 6.0042C16.5843 7.26018 17.2843 8.96591 17.2843 10.7467C17.2843 14.458 14.3105 17.4482 10.6647 17.4482C7.0189 17.4482 4.04517 14.458 4.04517 10.7467ZM19.0792 17.6767C18.6887 17.2862 18.0555 17.2862 17.665 17.6767C17.2745 18.0672 17.2745 18.7004 17.665 19.0909L20.2483 21.6743C20.6389 22.0648 21.272 22.0648 21.6626 21.6743C22.0531 21.2838 22.0531 20.6506 21.6626 20.2601L19.0792 17.6767Z" fill="#121212"/>
</svg>
