<svg width="24" height="24" viewBox="0 0 24 24" fill="none" xmlns="http://www.w3.org/2000/svg">
<path fill-rule="evenodd" clip-rule="evenodd" d="M14.7425 19.7333C14.7562 20.1222 14.6392 20.496 14.4828 20.8017C14.1486 21.4141 13.5014 21.7537 12.7672 21.7695L11.425 21.7507C10.7108 21.7435 10.0392 21.349 9.69065 20.7452C9.51881 20.4476 9.41055 20.0679 9.41986 19.6997C9.43366 19.3969 9.33631 19.113 9.1792 18.8409C8.69315 17.999 7.59502 17.692 6.75652 18.1421C5.79961 18.6945 4.59904 18.3446 4.03444 17.3666L3.36674 16.2101C2.79723 15.2237 3.09443 14.009 4.05134 13.4566C4.86529 12.9639 5.14844 11.8594 4.66239 11.0175C4.50037 10.7369 4.30316 10.5106 4.03896 10.3797C3.71544 10.2037 3.43585 9.91157 3.26892 9.62245C2.91543 9.01019 2.90951 8.23127 3.26039 7.60918L3.92014 6.44594C4.27935 5.81903 4.91856 5.42731 5.61612 5.44409C5.9443 5.43602 6.34121 5.54701 6.66623 5.74486C6.9202 5.9157 7.19995 5.95827 7.50808 5.97312C8.46916 5.98515 9.26213 5.18718 9.26919 4.21937C9.25743 3.10367 10.1571 2.22144 11.2607 2.23054L12.5715 2.2334C13.68 2.25101 14.5801 3.13731 14.5884 4.26631C14.6161 5.23673 15.4372 6.04391 16.3949 6.06924C16.7064 6.07079 17.0002 6.0032 17.24 5.84207C17.5547 5.6377 17.9166 5.55349 18.2595 5.57094C18.9571 5.58772 19.6188 5.9653 19.9939 6.57645L20.6861 7.77547C21.0494 8.40474 21.0289 9.17625 20.6947 9.78874C20.5334 10.0859 20.2844 10.3657 19.9452 10.5276C19.6857 10.6547 19.4803 10.8753 19.3259 11.1459C18.869 11.9879 19.1575 13.1026 19.9889 13.6203C20.9576 14.1835 21.2801 15.4146 20.7361 16.3749L20.0832 17.5116C19.5442 18.4804 18.3303 18.8184 17.3651 18.2419C16.5234 17.7641 15.4358 18.0518 14.9706 18.8986C14.8245 19.1644 14.7215 19.428 14.7425 19.7333ZM10.6236 9.58251C9.31723 10.3367 8.90063 12.0172 9.67143 13.3523C10.4422 14.6874 12.0911 15.1413 13.3975 14.3871C14.7039 13.6328 15.1436 11.9731 14.3728 10.638C13.602 9.30291 11.93 8.82826 10.6236 9.58251Z" fill="#121212"/>
</svg>
