<svg width="24" height="24" viewBox="0 0 24 24" fill="none" xmlns="http://www.w3.org/2000/svg">
<path d="M15.7208 7.93357C15.7208 9.96114 14.0771 11.6048 12.0495 11.6048C10.0219 11.6048 8.37828 9.96114 8.37828 7.93357C8.37828 5.906 10.0219 4.26233 12.0495 4.26233C14.0771 4.26233 15.7208 5.906 15.7208 7.93357Z" fill="#121212"/>
<path d="M5.41176 16.9424C5.41176 18.8272 8.3835 19.7378 12.0493 19.7378C15.7152 19.7378 18.6873 18.8272 18.6873 16.9424C18.6873 15.0575 15.7152 12.9121 12.0493 12.9121C8.3835 12.9121 5.41176 15.0575 5.41176 16.9424Z" fill="#121212"/>
<path d="M16.378 10.3218C16.2424 10.5217 16.3178 10.8059 16.5559 10.8468C16.7083 10.8729 16.865 10.8866 17.0249 10.8866C18.5446 10.8866 19.7766 9.65458 19.7766 8.13487C19.7766 6.61516 18.5446 5.38319 17.0249 5.38319C16.956 5.38319 16.8878 5.38572 16.8202 5.39069C16.5791 5.40842 16.4764 5.6842 16.5922 5.8964C16.9225 6.50153 17.1102 7.19563 17.1102 7.93357C17.1102 8.81866 16.8401 9.64069 16.378 10.3218Z" fill="#121212"/>
<path d="M20.1398 16.1377C20.1952 16.3579 20.419 16.5161 20.6292 16.4303C21.4786 16.0832 22 15.5707 22 14.8872C22 13.4744 19.7723 11.8664 17.0247 11.8664C16.5755 11.8664 16.1401 11.9094 15.7262 11.9875C15.3809 12.0526 15.4079 12.5133 15.7451 12.6123C18.0756 13.2971 19.7865 14.7319 20.1398 16.1377Z" fill="#121212"/>
<path d="M6.97511 10.8866C7.13498 10.8866 7.29167 10.8729 7.44408 10.8468C7.68215 10.8059 7.75763 10.5217 7.622 10.3218C7.15986 9.64069 6.88985 8.81866 6.88985 7.93357C6.88985 7.19563 7.07754 6.50153 7.40779 5.8964C7.5236 5.6842 7.42093 5.40842 7.17983 5.39069C7.11224 5.38572 7.04397 5.38319 6.97511 5.38319C5.45539 5.38319 4.22342 6.61516 4.22342 8.13487C4.22342 9.65458 5.45539 10.8866 6.97511 10.8866Z" fill="#121212"/>
<path d="M2 14.8872C2 15.5707 2.5214 16.0832 3.37084 16.4303C3.58103 16.5161 3.8048 16.3579 3.86015 16.1377C4.21353 14.7319 5.92439 13.2971 8.25493 12.6123C8.59205 12.5133 8.61912 12.0526 8.27384 11.9875C7.85987 11.9094 7.42453 11.8664 6.97529 11.8664C4.22766 11.8664 2 13.4744 2 14.8872Z" fill="#121212"/>
</svg>
