<svg width="24" height="24" viewBox="0 0 24 24" fill="none" xmlns="http://www.w3.org/2000/svg">
<path fill-rule="evenodd" clip-rule="evenodd" d="M19.3585 6.33824C20.1737 7.39502 20.8192 8.57161 21.1677 10.3757C21.3735 11.441 21.4763 11.9737 21.2583 12.6742C21.1512 13.0184 20.8886 13.482 20.6485 13.7508C20.1597 14.2981 19.5044 14.5367 18.1937 15.014L17.0157 15.443C16.5781 15.6023 16.3593 15.682 16.2028 15.7749C15.3502 16.2811 15.0147 17.3475 15.4239 18.2507C15.499 18.4165 15.6327 18.6071 15.9002 18.9883L15.9002 18.9883C15.9908 19.1174 16.0362 19.182 16.0733 19.2632C16.2585 19.6683 16.0864 20.2497 15.7105 20.4886C15.6351 20.5366 15.5849 20.5568 15.4846 20.5972L15.4846 20.5972L15.4845 20.5973L15.4845 20.5973C14.0056 21.1934 12.3905 21.4007 10.7956 21.1883C8.77499 20.9193 6.89945 19.9917 5.45924 18.5492C4.01903 17.1067 3.09447 15.2297 2.82867 13.2087C2.56287 11.1877 2.97064 9.13543 3.98888 7.36957C5.00712 5.60372 6.57904 4.22274 8.46132 3.44039C10.3436 2.65804 12.4313 2.51795 14.4012 3.04181C16.3711 3.56567 18.1135 4.72426 19.3585 6.33824ZM17.8759 9.33073C17.8759 10.0465 17.2957 10.6268 16.5799 10.6268C15.8641 10.6268 15.2839 10.0465 15.2839 9.33073C15.2839 8.61495 15.8641 8.0347 16.5799 8.0347C17.2957 8.0347 17.8759 8.61495 17.8759 9.33073ZM11.5545 7.71389C12.2703 7.71389 12.8506 7.13364 12.8506 6.41786C12.8506 5.70208 12.2703 5.12182 11.5545 5.12182C10.8387 5.12182 10.2585 5.70208 10.2585 6.41786C10.2585 7.13364 10.8387 7.71389 11.5545 7.71389ZM8.29871 9.96501C8.29871 10.6808 7.71845 11.261 7.00267 11.261C6.28689 11.261 5.70664 10.6808 5.70664 9.96501C5.70664 9.24923 6.28689 8.66897 7.00267 8.66897C7.71845 8.66897 8.29871 9.24923 8.29871 9.96501ZM7.90804 16.4965C8.62382 16.4965 9.20407 15.9162 9.20407 15.2004C9.20407 14.4847 8.62382 13.9044 7.90804 13.9044C7.19226 13.9044 6.612 14.4847 6.612 15.2004C6.612 15.9162 7.19226 16.4965 7.90804 16.4965Z" fill="#121212"/>
</svg>
