<svg width="122" height="122" viewBox="0 0 122 122" fill="none" xmlns="http://www.w3.org/2000/svg">
<circle cx="59.5" cy="62.5" r="59.5" fill="#F5F6FF"/>
<mask id="mask0_172_3164" style="mask-type:alpha" maskUnits="userSpaceOnUse" x="0" y="3" width="119" height="119">
<circle cx="59.5" cy="62.5" r="59.5" fill="#F5F6FF"/>
</mask>
<g mask="url(#mask0_172_3164)">
<rect x="20" y="29" width="79" height="113" rx="8" fill="white"/>
<circle cx="37" cy="46" r="7" fill="#00097A"/>
<rect x="30" y="61" width="49" height="5" rx="2.5" fill="#B3B8FF"/>
<rect x="30" y="70" width="49" height="5" rx="2.5" fill="#DBDEFF"/>
<rect x="30" y="79" width="29" height="5" rx="2.5" fill="#DBDEFF"/>
</g>
<circle cx="104" cy="18" r="17" fill="#5C68FF" stroke="white" stroke-width="2"/>
<path d="M99.8825 14.679C99.8805 14.7274 99.8883 14.7758 99.9057 14.8211C99.923 14.8664 99.9494 14.9076 99.9833 14.9423C100.017 14.977 100.058 15.0044 100.103 15.0229C100.147 15.0413 100.196 15.0504 100.244 15.0495H101.482C101.689 15.0495 101.854 14.88 101.881 14.6745C102.016 13.6905 102.691 12.9735 103.894 12.9735C104.923 12.9735 105.865 13.488 105.865 14.7255C105.865 15.678 105.304 16.116 104.417 16.782C103.408 17.5155 102.608 18.372 102.665 19.7625L102.67 20.088C102.671 20.1864 102.711 20.2803 102.781 20.3493C102.852 20.4183 102.946 20.457 103.045 20.457H104.261C104.36 20.457 104.456 20.4175 104.526 20.3472C104.597 20.2768 104.636 20.1815 104.636 20.082V19.9245C104.636 18.8475 105.046 18.534 106.151 17.6955C107.065 17.001 108.017 16.23 108.017 14.6115C108.017 12.345 106.103 11.25 104.008 11.25C102.107 11.25 100.025 12.135 99.8825 14.679V14.679ZM102.218 23.3235C102.218 24.123 102.856 24.714 103.733 24.714C104.647 24.714 105.275 24.123 105.275 23.3235C105.275 22.4955 104.645 21.9135 103.732 21.9135C102.856 21.9135 102.218 22.4955 102.218 23.3235Z" fill="white"/>
</svg>
